<svg height="512" viewBox="0 0 64 64" width="512" xmlns="http://www.w3.org/2000/svg" xmlns:xlink="http://www.w3.org/1999/xlink"><linearGradient id="linear-gradient" gradientUnits="userSpaceOnUse" x1="3.667" x2="66.984" y1="60.333" y2="-2.984"><stop offset="0" stop-color="#003f8a"/><stop offset=".518" stop-color="#00d7df"/><stop offset="1" stop-color="#006df0"/></linearGradient><linearGradient id="linear-gradient-2" x1="-7.333" x2="55.984" xlink:href="#linear-gradient" y1="49.333" y2="-13.984"/><linearGradient id="linear-gradient-3" x1="14.667" x2="77.984" xlink:href="#linear-gradient" y1="71.333" y2="8.016"/><linearGradient id="linear-gradient-5" x1="-18.333" x2="44.984" xlink:href="#linear-gradient" y1="38.333" y2="-24.984"/><linearGradient id="linear-gradient-9" x1="25.667" x2="88.984" xlink:href="#linear-gradient" y1="82.333" y2="19.016"/><linearGradient id="linear-gradient-10" x1="-22.083" x2="41.234" xlink:href="#linear-gradient" y1="34.583" y2="-28.734"/><linearGradient id="linear-gradient-11" x1="-19.083" x2="44.234" xlink:href="#linear-gradient" y1="37.583" y2="-25.734"/><path d="m40 23h-16a1 1 0 0 0 -1 1v16a1 1 0 0 0 1 1h16a1 1 0 0 0 1-1v-16a1 1 0 0 0 -1-1zm-1 16h-14v-14h14z" fill="url(#linear-gradient)"/><path d="m40 1h-16a1 1 0 0 0 -1 1v16a1 1 0 0 0 1 1h16a1 1 0 0 0 1-1v-16a1 1 0 0 0 -1-1zm-1 16h-14v-14h14z" fill="url(#linear-gradient-2)"/><path d="m40 45h-16a1 1 0 0 0 -1 1v16a1 1 0 0 0 1 1h16a1 1 0 0 0 1-1v-16a1 1 0 0 0 -1-1zm-1 16h-14v-14h14z" fill="url(#linear-gradient-3)"/><path d="m18 23h-16a1 1 0 0 0 -1 1v16a1 1 0 0 0 1 1h16a1 1 0 0 0 1-1v-16a1 1 0 0 0 -1-1zm-1 16h-14v-14h14z" fill="url(#linear-gradient-2)"/><path d="m18 1h-16a1 1 0 0 0 -1 1v16a1 1 0 0 0 1 1h16a1 1 0 0 0 1-1v-16a1 1 0 0 0 -1-1zm-1 16h-14v-14h14z" fill="url(#linear-gradient-5)"/><path d="m18 45h-16a1 1 0 0 0 -1 1v16a1 1 0 0 0 1 1h16a1 1 0 0 0 1-1v-16a1 1 0 0 0 -1-1zm-1 16h-14v-14h14z" fill="url(#linear-gradient)"/><path d="m62 23h-16a1 1 0 0 0 -1 1v16a1 1 0 0 0 1 1h16a1 1 0 0 0 1-1v-16a1 1 0 0 0 -1-1zm-1 16h-14v-14h14z" fill="url(#linear-gradient-3)"/><path d="m62 1h-16a1 1 0 0 0 -1 1v16a1 1 0 0 0 1 1h16a1 1 0 0 0 1-1v-16a1 1 0 0 0 -1-1zm-1 16h-14v-14h14z" fill="url(#linear-gradient)"/><path d="m62 45h-16a1 1 0 0 0 -1 1v16a1 1 0 0 0 1 1h16a1 1 0 0 0 1-1v-16a1 1 0 0 0 -1-1zm-1 16h-14v-14h14z" fill="url(#linear-gradient-9)"/><path d="m5 6h5a1 1 0 0 0 0-2h-5a1 1 0 0 0 0 2z" fill="url(#linear-gradient-10)"/><path d="m13 6h1a1 1 0 0 0 0-2h-1a1 1 0 0 0 0 2z" fill="url(#linear-gradient-11)"/></svg>