<svg id="Layer_5" enable-background="new 0 0 64 64" height="512" viewBox="0 0 64 64" width="512" xmlns="http://www.w3.org/2000/svg" xmlns:xlink="http://www.w3.org/1999/xlink"><linearGradient id="SVGID_1_" gradientUnits="userSpaceOnUse" x1="32" x2="32" y1="63" y2="1"><stop offset="0" stop-color="#9f2fff"/><stop offset="1" stop-color="#0bb1d3"/></linearGradient><path d="m13 41h10c2.206 0 4-1.794 4-4s-1.794-4-4-4h-10c-2.206 0-4 1.794-4 4s1.794 4 4 4zm0-6h10c1.103 0 2 .897 2 2s-.897 2-2 2h-10c-1.103 0-2-.897-2-2s.897-2 2-2zm19.586-34-8.586 8.586v19.919c-1.861-.322-3.874-.505-6-.505-9.532 0-17 3.514-17 8v18c0 4.486 7.468 8 17 8s17-3.514 17-8v-12h11.414l-5-5 4-4-4-4 4-4-4-4 4-4-4-4 4-4-4-4 5-5zm-5.172 8 4.586-4.586v4.586zm-9.414 22c8.84 0 15 3.162 15 6s-6.16 6-15 6-15-3.162-15-6 6.16-6 15-6zm-15 9.821c2.838 2.508 8.427 4.179 15 4.179s12.162-1.671 15-4.179v2.179c0 2.838-6.16 6-15 6s-15-3.162-15-6zm15 20.179c-8.84 0-15-3.162-15-6v-2.179c2.838 2.508 8.427 4.179 15 4.179s12.162-1.671 15-4.179v2.179c0 2.838-6.16 6-15 6zm0-6c-8.84 0-15-3.162-15-6v-2.179c2.838 2.508 8.427 4.179 15 4.179s12.162-1.671 15-4.179v2.179c0 2.838-6.16 6-15 6zm23.586-14h-6.586v-2h4.586zm-2-4h-4.586c0-.694-.198-1.362-.536-2h7.122zm2-4h-8.809c-.911-.756-2.077-1.429-3.447-2h10.255zm0-8h-9.586v2h9.586l-2 2h-11.586v1.499c-.636-.215-1.299-.413-2-.585v-18.914h2v12h11.586zm1-15-4 4 4 4-3 3h-9.586v-10h4v-4h5.586zm-3-5h-5.586v-2h7.586zm7 1 4 4-4 4 4 4-4 4 4 4-4 4 4 4-4 4 5 5h11.414v-42h-11.414zm2.828 8 4-4-3-3h6.586v14h-6.586l3-3zm11.586-11v38h-8.586l-2-2h4.586v-2h-4.586l2-2h6.586v-2h-6.586l-2-2h8.586v-2h-8.586l2-2h6.586v-2h-6.586l-2-2h8.586v-18h-8.586l2-2zm-33 22h2v2h-2zm29 12h2v2h-2z" fill="url(#SVGID_1_)"/></svg>