<svg id="Layer_5" enable-background="new 0 0 64 64" height="512" viewBox="0 0 64 64" width="512" xmlns="http://www.w3.org/2000/svg" xmlns:xlink="http://www.w3.org/1999/xlink"><linearGradient id="SVGID_1_" gradientUnits="userSpaceOnUse" x1="32" x2="32" y1="63" y2=".882"><stop offset="0" stop-color="#9f2fff"/><stop offset="1" stop-color="#0bb1d3"/></linearGradient><path d="m31 47h2v-6h-12.101c-.465-2.279-2.484-4-4.899-4h-7v-15h2v7c0 2.206 1.794 4 4 4h2c2.206 0 4-1.794 4-4v-20c0-2.206-1.794-4-4-4h-2c-2.206 0-4 1.794-4 4v7h-3c-2.757 0-5 2.243-5 5v20h-2v6h2v14h-2v2h62v-2h-32zm-18-38c0-1.103.897-2 2-2h2c1.103 0 2 .897 2 2v20c0 1.103-.897 2-2 2h-2c-1.103 0-2-.897-2-2zm-8 12c0-1.654 1.346-3 3-3h3v2h-2c-1.103 0-2 .897-2 2v15c0 1.103.897 2 2 2h7c1.302 0 2.402.839 2.816 2h-13.816zm-2 22h28v2h-28zm2 4h24v14h-24zm51.223-41.602-.636-.123-6.821 9.744 2.965 3.953-8.188 10.008-.088-.05 3.704-10.188-3.977-3.977 4.876-11.704-.952-.371c-2.215-.867-3.645-1.578-3.659-1.585l-.447-.223-.447.223c-.098.049-9.889 4.895-18.553 4.895h-1v14.923c0 7.266 3.58 14.054 9.577 18.157l10.423 7.132 10.423-7.132c5.997-4.102 9.577-10.891 9.577-18.157v-14.923h-1c-1.762 0-3.706-.203-5.777-.602zm-11.38 13.859-3.27 8.99c-.229.628-.136 1.331.248 1.878.384.548 1.012.875 1.68.875.618 0 1.197-.274 1.588-.752l9.181-11.221-3.035-4.047 2.75-3.928c1.027.223 2.04.418 3.015.561v9.311c0 5.284-2.604 10.221-6.965 13.206l-7.035 4.811-7.035-4.812c-4.361-2.984-6.965-7.921-6.965-13.206v-9.31c5.712-.839 11.043-2.852 14-4.12.274.117.573.242.889.372l-3.07 7.368zm16.157 1.666c0 6.606-3.255 12.776-8.706 16.506l-9.294 6.359-9.294-6.358c-5.451-3.731-8.706-9.901-8.706-16.507v-12.942c7.859-.295 16.008-3.927 18.001-4.871.477.224 1.315.606 2.427 1.062l-.769 1.846c-.461-.189-.893-.371-1.258-.53l-.401-.176-.401.175c-2.898 1.268-8.665 3.506-14.723 4.26l-.876.109v11.067c0 5.945 2.929 11.499 7.836 14.856l8.164 5.586 8.165-5.586c4.906-3.357 7.835-8.911 7.835-14.856v-11.067l-.877-.109c-.927-.115-1.899-.287-2.888-.483l1.249-1.784c1.582.278 3.095.446 4.516.5z" fill="url(#SVGID_1_)"/></svg>